<svg width="3624" height="3624" viewBox="0 0 3624 3624" fill="none" xmlns="http://www.w3.org/2000/svg">
<path fill-rule="evenodd" clip-rule="evenodd" d="M2718 2982.25C2908.23 2982.25 3090.66 2906.68 3225.17 2772.17C3359.68 2637.66 3435.25 2455.23 3435.25 2265V1359C3435.25 1168.77 3359.68 986.338 3225.17 851.828C3090.66 717.317 2908.23 641.75 2718 641.75L906 641.75C715.773 641.75 533.338 717.317 398.828 851.828C264.317 986.338 188.75 1168.77 188.75 1359V2265C188.75 2455.23 264.317 2637.66 398.828 2772.17C533.338 2906.68 715.773 2982.25 906 2982.25L2718 2982.25ZM1429.97 1316.72L1014.72 1731.97C993.512 1753.2 981.6 1781.99 981.6 1812C981.6 1842.01 993.512 1870.8 1014.72 1892.03L1429.97 2307.28C1440.34 2318.41 1452.84 2327.33 1466.73 2333.52C1480.62 2339.71 1495.62 2343.04 1510.83 2343.31C1526.03 2343.58 1541.14 2340.78 1555.24 2335.08C1569.34 2329.39 1582.15 2320.91 1592.9 2310.15C1603.66 2299.4 1612.14 2286.59 1617.83 2272.49C1623.53 2258.39 1626.33 2243.28 1626.06 2228.08C1625.79 2212.87 1622.46 2197.87 1616.27 2183.98C1610.08 2170.09 1601.16 2157.59 1590.03 2147.22L1368.06 1925.25L2604.75 1925.25C2634.79 1925.25 2663.59 1913.32 2684.83 1892.08C2706.07 1870.84 2718 1842.04 2718 1812C2718 1781.96 2706.07 1753.16 2684.83 1731.92C2663.59 1710.68 2634.79 1698.75 2604.75 1698.75L1368.06 1698.75L1590.03 1476.78C1601.16 1466.41 1610.08 1453.91 1616.27 1440.02C1622.46 1426.13 1625.79 1411.13 1626.06 1395.92C1626.33 1380.72 1623.53 1365.61 1617.83 1351.51C1612.14 1337.41 1603.66 1324.6 1592.9 1313.85C1582.15 1303.09 1569.34 1294.61 1555.24 1288.92C1541.14 1283.22 1526.03 1280.42 1510.83 1280.69C1495.62 1280.96 1480.62 1284.29 1466.73 1290.48C1452.84 1296.67 1440.34 1305.59 1429.97 1316.72Z" fill="#9747FF"/>
</svg>
