<svg width="3624" height="3624" viewBox="0 0 3624 3624" fill="none" xmlns="http://www.w3.org/2000/svg">
<path fill-rule="evenodd" clip-rule="evenodd" d="M906 641.75C715.773 641.75 533.338 717.317 398.828 851.828C264.317 986.338 188.75 1168.77 188.75 1359V2265C188.75 2455.23 264.317 2637.66 398.828 2772.17C533.338 2906.68 715.773 2982.25 906 2982.25H2718C2908.23 2982.25 3090.66 2906.68 3225.17 2772.17C3359.68 2637.66 3435.25 2455.23 3435.25 2265V1359C3435.25 1168.77 3359.68 986.338 3225.17 851.828C3090.66 717.317 2908.23 641.75 2718 641.75H906ZM2194.03 2307.28L2609.28 1892.03C2630.49 1870.8 2642.4 1842.01 2642.4 1812C2642.4 1781.99 2630.49 1753.2 2609.28 1731.97L2194.03 1316.72C2183.66 1305.59 2171.16 1296.67 2157.27 1290.48C2143.38 1284.29 2128.38 1280.96 2113.17 1280.69C2097.97 1280.42 2082.86 1283.22 2068.76 1288.92C2054.66 1294.61 2041.85 1303.09 2031.1 1313.85C2020.34 1324.6 2011.86 1337.41 2006.17 1351.51C2000.47 1365.61 1997.67 1380.72 1997.94 1395.92C1998.21 1411.13 2001.54 1426.13 2007.73 1440.02C2013.92 1453.91 2022.84 1466.41 2033.97 1476.78L2255.94 1698.75H1019.25C989.214 1698.75 960.409 1710.68 939.17 1731.92C917.932 1753.16 906 1781.96 906 1812C906 1842.04 917.932 1870.84 939.17 1892.08C960.409 1913.32 989.214 1925.25 1019.25 1925.25H2255.94L2033.97 2147.22C2022.84 2157.59 2013.92 2170.09 2007.73 2183.98C2001.54 2197.87 1998.21 2212.87 1997.94 2228.08C1997.67 2243.28 2000.47 2258.39 2006.17 2272.49C2011.86 2286.59 2020.34 2299.4 2031.1 2310.15C2041.85 2320.91 2054.66 2329.39 2068.76 2335.08C2082.86 2340.78 2097.97 2343.58 2113.17 2343.31C2128.38 2343.04 2143.38 2339.71 2157.27 2333.52C2171.16 2327.33 2183.66 2318.41 2194.03 2307.28Z" fill="#9747FF"/>
</svg>
