<svg width="2424" height="2424" viewBox="0 0 2424 2424" fill="none" xmlns="http://www.w3.org/2000/svg">
<g clip-path="url(#clip0_104_37)">
<path d="M2386.12 14.8795C2415.88 36.5223 2428.06 65.3795 2422.65 101.451L2076.36 2179.17C2071.85 2205.32 2057.42 2225.61 2033.08 2240.04C2020.45 2247.25 2006.47 2250.86 1991.14 2250.86C1981.22 2250.86 1970.4 2248.6 1958.68 2244.09L1345.92 1993.85L1018.57 2392.89C1002.33 2413.63 980.241 2424 952.286 2424C940.562 2424 930.643 2422.2 922.527 2418.59C905.393 2412.28 891.64 2401.68 881.27 2386.8C870.899 2371.92 865.714 2355.46 865.714 2337.43V1865.34L2034.43 432.857L588.415 1684.08L54.107 1464.95C20.741 1452.33 2.70526 1427.53 -9.30086e-05 1390.55C-1.80366 1354.48 12.6249 1327.88 43.2856 1310.75L2294.14 12.1741C2307.67 4.05804 2322.1 0 2337.43 0C2355.46 0 2371.7 4.95982 2386.12 14.8795Z" fill="white"/>
</g>
<defs>
<clipPath id="clip0_104_37">
<rect width="2424" height="2424" fill="white"/>
</clipPath>
</defs>
</svg>
